<?xml version="1.0" standalone="no"?>
<!DOCTYPE svg PUBLIC "-//W3C//DTD SVG 20010904//EN"
 "http://www.w3.org/TR/2001/REC-SVG-20010904/DTD/svg10.dtd">
<svg version="1.0" xmlns="http://www.w3.org/2000/svg"
 width="328.000000pt" height="328.000000pt" viewBox="0 0 328.000000 328.000000"
 preserveAspectRatio="xMidYMid meet">
<metadata>
Created by potrace 1.11, written by Peter Selinger 2001-2013
</metadata>
<g transform="translate(0.000000,328.000000) scale(0.100000,-0.100000)"
fill="#000000" stroke="none">
<path d="M2191 1983 c-130 -139 -197 -271 -206 -408 -3 -44 1 -76 19 -163 5
-24 60 -137 80 -164 12 -16 39 -21 114 -19 l43 1 -25 43 c-57 98 -82 251 -61
361 23 118 92 247 185 349 l62 67 -74 0 -74 0 -63 -67z"/>
<path d="M3056 1981 c34 -68 38 -81 53 -172 27 -167 -57 -384 -209 -539 l-39
-40 37 -1 c94 -3 105 1 155 49 238 231 288 499 134 730 l-28 42 -69 0 -69 0
35 -69z"/>
<path d="M146 2011 c-3 -5 -28 -123 -40 -191 -2 -14 -11 -59 -20 -100 -8 -41
-17 -86 -20 -100 -2 -14 -16 -85 -30 -158 -14 -72 -26 -134 -26 -137 0 -3 38
-5 84 -5 l83 0 7 38 c3 20 8 48 11 62 3 14 16 81 29 148 13 68 27 126 29 128
3 3 8 -23 13 -58 4 -35 8 -65 9 -68 2 -7 18 -112 20 -125 0 -5 5 -36 9 -68 l8
-58 51 3 50 3 42 80 c95 179 130 241 148 270 l18 30 -6 -30 c-3 -16 -8 -41
-10 -55 -3 -14 -7 -36 -10 -50 -9 -39 -36 -181 -42 -217 l-5 -33 81 0 c56 0
83 4 86 13 4 11 77 384 91 462 2 17 11 62 19 100 8 39 16 82 19 96 l4 26 -111
-1 -111 -1 -38 -65 c-22 -36 -43 -74 -48 -85 -6 -11 -14 -27 -20 -35 -6 -8
-28 -46 -50 -85 -22 -38 -40 -68 -41 -65 0 3 -2 12 -4 20 -9 46 -26 140 -31
170 -3 20 -11 60 -17 90 l-12 55 -108 1 c-59 1 -109 -1 -111 -5z"/>
<path d="M965 2006 c-4 -10 -66 -317 -79 -386 -2 -14 -16 -85 -30 -158 -14
-72 -26 -134 -26 -137 0 -3 69 -5 153 -5 172 0 246 14 307 58 59 42 81 84 85
162 3 55 -16 95 -55 115 -30 15 -33 35 -6 35 18 0 84 74 97 108 18 46 14 120
-7 149 -43 57 -82 67 -267 69 -119 1 -170 -2 -172 -10z m271 -157 c17 -14 18
-48 1 -70 -19 -25 -48 -36 -106 -38 l-53 -3 7 44 c14 84 17 87 81 83 31 -3 62
-10 70 -16z m-43 -264 c17 -7 23 -50 9 -71 -13 -20 -51 -34 -101 -38 -70 -5
-75 0 -61 68 l11 56 62 -4 c34 -2 70 -7 80 -11z"/>
<path d="M1555 2010 c-2 -3 -6 -17 -8 -31 -7 -37 -31 -161 -81 -418 -26 -129
-46 -236 -46 -238 0 -1 98 -3 218 -3 l219 0 12 68 c7 37 14 76 17 87 5 19 0
20 -131 18 l-135 -3 5 25 c3 14 7 35 10 48 4 22 7 23 115 22 l110 -2 6 26 c3
14 8 32 10 39 2 8 7 35 10 61 l6 48 -94 0 c-138 1 -128 -2 -121 36 3 17 10 36
15 42 5 5 65 10 136 10 l127 0 11 45 c6 25 14 63 17 85 l7 41 -216 0 c-118 1
-217 -2 -219 -6z"/>
<path d="M2410 1767 c-6 -29 -13 -67 -16 -83 -2 -16 -9 -51 -14 -79 -30 -150
-32 -173 -20 -209 6 -18 22 -44 36 -57 46 -43 154 -23 221 40 30 29 34 27 29
-19 l-4 -40 79 0 c43 0 79 2 79 4 0 2 5 28 10 57 6 30 13 68 16 84 3 17 16 86
30 155 13 69 27 142 30 163 l6 38 -83 -3 -82 -3 -14 -65 c-7 -36 -15 -76 -18
-90 -28 -151 -29 -154 -81 -169 -36 -10 -74 2 -75 26 -3 39 1 68 46 286 3 15
-6 17 -80 17 l-84 0 -11 -53z"/>
</g>
</svg>
